<?xml version="1.0" encoding="UTF-8" standalone="no"?>
<svg width="25px" height="20px" viewBox="0 0 25 20" version="1.1" xmlns="http://www.w3.org/2000/svg" xmlns:xlink="http://www.w3.org/1999/xlink" xmlns:sketch="http://www.bohemiancoding.com/sketch/ns">
    <!-- Generator: Sketch 3.4.2 (15857) - http://www.bohemiancoding.com/sketch -->
    <title>Fill 109</title>
    <desc>Created with Sketch.</desc>
    <defs></defs>
    <g id="Page-1" stroke="none" stroke-width="1" fill="none" fill-rule="evenodd" sketch:type="MSPage">
        <path d="M11.653,21.511 C11.799,21.657 11.991,21.729 12.182,21.729 C12.371,21.729 12.562,21.657 12.709,21.511 L21.453,12.853 C21.748,12.562 21.75,12.087 21.458,11.793 C21.168,11.499 20.691,11.496 20.398,11.788 L12.924,19.188 L12.924,-1.25 C12.924,-1.665 12.588,-2 12.174,-2 C11.759,-2 11.424,-1.665 11.424,-1.25 L11.424,19.172 L3.969,11.788 C3.676,11.496 3.201,11.499 2.908,11.793 C2.616,12.087 2.619,12.562 2.914,12.853 L11.653,21.511 L11.653,21.511 Z" id="Fill-109" fill="#FFFFFF" sketch:type="MSShapeGroup" transform="translate(12.183247, 9.864500) rotate(-90.000000) translate(-12.183247, -9.864500) "></path>
    </g>
</svg>