<?xml version="1.0" encoding="UTF-8" standalone="no"?>
<svg width="21px" height="21px" viewBox="0 0 21 21" version="1.1" xmlns="http://www.w3.org/2000/svg" xmlns:xlink="http://www.w3.org/1999/xlink" xmlns:sketch="http://www.bohemiancoding.com/sketch/ns">
    <!-- Generator: Sketch 3.4.1 (15681) - http://www.bohemiancoding.com/sketch -->
    <title>facebook</title>
    <desc>Created with Sketch.</desc>
    <defs></defs>
    <g id="Welcome" stroke="none" stroke-width="1" fill="none" fill-rule="evenodd" sketch:type="MSPage">
        <g id="HOME-EXPANDING-NAV-HIGH-" sketch:type="MSArtboardGroup" transform="translate(-59.000000, -1980.000000)">
            <g id="Social-Media" sketch:type="MSLayerGroup" transform="translate(59.000000, 1980.000000)">
                <g id="facebook" transform="translate(0.500000, 0.750000)" sketch:type="MSShapeGroup">
                    <rect id="Rectangle" x="0" y="0" width="19.8859216" height="19.8859216"></rect>
                    <ellipse id="Oval" stroke="#000000" stroke-width="2" cx="9.94296082" cy="9.94296082" rx="9.94296082" ry="9.94296082"></ellipse>
                    <path d="M10.5371457,15.8183468 L8.33276238,15.8183468 L8.33276238,10.6202339 L7.23124424,10.6202339 L7.23124424,8.82913858 L8.33276238,8.82913858 L8.33276238,7.75382532 C8.33276238,6.29273768 8.95440791,5.42343318 10.7216862,5.42343318 L12.1926221,5.42343318 L12.1926221,7.21518457 L11.2732871,7.21518457 C10.5853013,7.21518457 10.5398397,7.46547865 10.5398397,7.93260681 L10.5368089,8.82913858 L12.2027246,8.82913858 L12.0077448,10.6202339 L10.5368089,10.6202339 L10.5368089,15.8183468 L10.5371457,15.8183468 Z" id="Shape" fill="#000000"></path>
                </g>
            </g>
        </g>
    </g>
</svg>