<?xml version="1.0" encoding="UTF-8" standalone="no"?>
<svg width="20px" height="20px" viewBox="0 0 20 20" version="1.1" xmlns="http://www.w3.org/2000/svg" xmlns:xlink="http://www.w3.org/1999/xlink" xmlns:sketch="http://www.bohemiancoding.com/sketch/ns">
    <!-- Generator: Sketch 3.4.1 (15681) - http://www.bohemiancoding.com/sketch -->
    <title>instagram copy 2</title>
    <desc>Created with Sketch.</desc>
    <defs></defs>
    <g id="Welcome" stroke="none" stroke-width="1" fill="none" fill-rule="evenodd" sketch:type="MSPage">
        <g id="HOME-EXPANDING-NAV-HIGH-" sketch:type="MSArtboardGroup" transform="translate(-145.000000, -1980.000000)">
            <g id="Social-Media" sketch:type="MSLayerGroup" transform="translate(59.000000, 1980.000000)">
                <g id="instagram-copy-2" transform="translate(86.000000, 0.000000)" sketch:type="MSShapeGroup">
                    <rect id="Rectangle" x="0" y="0" width="20" height="20"></rect>
                    <circle id="Oval" stroke="#000000" stroke-width="2" cx="10" cy="10" r="10"></circle>
                    <path d="M12.7885273,5.45454545 L7.21147268,5.45454545 C6.2429445,5.45454545 5.45454545,6.24240999 5.45454545,7.21147268 L5.45454545,12.7885273 C5.45454545,13.75759 6.2429445,14.5454545 7.21147268,14.5454545 L12.7885273,14.5454545 C13.7570555,14.5454545 14.5454545,13.75759 14.5454545,12.7885273 L14.5454545,7.21147268 C14.5454545,6.24240999 13.7570555,5.45454545 12.7885273,5.45454545 L12.7885273,5.45454545 Z M13.2925682,6.5027153 L13.4935431,6.50164628 L13.4935431,8.04263234 L11.9573677,8.04744291 L11.9520226,6.50645685 L13.2925682,6.5027153 L13.2925682,6.5027153 Z M8.70274951,9.06674934 C8.99352177,8.66373044 9.46602668,8.39968357 10,8.39968357 C10.5339733,8.39968357 11.0064782,8.66373044 11.2972505,9.06674934 C11.4870008,9.32972719 11.6003164,9.6515009 11.6003164,10 C11.6003164,10.8819379 10.8824724,11.5997819 10,11.5997819 C9.11806209,11.5997819 8.40021808,10.8819379 8.40021808,10 C8.40021808,9.6515009 8.51353374,9.32972719 8.70274951,9.06674934 L8.70274951,9.06674934 Z M13.6597751,12.7885273 C13.6597751,13.2690499 13.2690499,13.6597751 12.7885273,13.6597751 L7.21147268,13.6597751 C6.73095014,13.6597751 6.34022492,13.2690499 6.34022492,12.7885273 L6.34022492,9.06674934 L7.6978748,9.06674934 C7.58028308,9.35538356 7.51453861,9.67020867 7.51453861,10 C7.51453861,11.3704781 8.62952194,12.4859959 10,12.4859959 C11.3710126,12.4859959 12.4859959,11.3704781 12.4859959,10 C12.4859959,9.67020867 12.4191824,9.35538356 12.3026597,9.06674934 L13.6597751,9.06674934 L13.6597751,12.7885273 L13.6597751,12.7885273 Z" id="Shape" fill="#000000"></path>
                </g>
            </g>
        </g>
    </g>
</svg>