<?xml version="1.0" encoding="UTF-8" standalone="no"?>
<svg width="21px" height="20px" viewBox="0 0 21 20" version="1.1" xmlns="http://www.w3.org/2000/svg" xmlns:xlink="http://www.w3.org/1999/xlink" xmlns:sketch="http://www.bohemiancoding.com/sketch/ns">
    <!-- Generator: Sketch 3.4.1 (15681) - http://www.bohemiancoding.com/sketch -->
    <title>twitter copy 2</title>
    <desc>Created with Sketch.</desc>
    <defs></defs>
    <g id="Welcome" stroke="none" stroke-width="1" fill="none" fill-rule="evenodd" sketch:type="MSPage">
        <g id="HOME-EXPANDING-NAV-HIGH-" sketch:type="MSArtboardGroup" transform="translate(-102.000000, -1980.000000)">
            <g id="Social-Media" sketch:type="MSLayerGroup" transform="translate(59.000000, 1980.000000)">
                <g id="twitter-copy-2" transform="translate(43.225610, 0.000000)" sketch:type="MSShapeGroup">
                    <rect id="Rectangle" x="0" y="0" width="20" height="20"></rect>
                    <ellipse id="Oval" stroke="#000000" stroke-width="2" cx="10" cy="10" rx="10" ry="10"></ellipse>
                    <path d="M13.8755223,7.65715074 C14.2800429,7.40187517 14.5904369,6.99709795 14.7361091,6.51491077 C14.3573613,6.75186795 13.9388337,6.92323349 13.4922922,7.01600725 C13.1359554,6.6141846 12.6266628,6.36363636 12.0630233,6.36363636 C10.9816869,6.36363636 10.1054123,7.28841937 10.1054123,8.42888658 C10.1054123,8.59079747 10.1216603,8.74857195 10.155277,8.89925545 C8.52823,8.81298176 7.08551442,7.991609 6.11903504,6.74123147 C5.95039139,7.04732578 5.8540236,7.40187517 5.8540236,7.78006119 C5.8540236,8.49625097 6.19971506,9.12853072 6.72525573,9.49962575 C6.40421649,9.48898927 6.1022267,9.39503368 5.83777554,9.24139561 L5.83777554,9.26680498 C5.83777554,10.2678161 6.51235013,11.1027799 7.40935504,11.2918729 C7.24463334,11.340328 7.07206775,11.3645556 6.89277882,11.3645556 C6.76671629,11.3645556 6.64345515,11.3521463 6.52467624,11.3279188 C6.77343963,12.1481097 7.49675839,12.7461164 8.35398358,12.7620711 C7.68333093,13.31635 6.83899214,13.6460809 5.92181722,13.6460809 C5.76381885,13.6460809 5.60750132,13.6372172 5.45454545,13.617717 C6.32129536,14.2033144 7.35052586,14.5454545 8.45651443,14.5454545 C12.0591013,14.5454545 14.0279178,11.3982378 14.0279178,8.66879834 C14.0279178,8.57897916 14.0267973,8.4897509 14.0228753,8.40170446 C14.4055452,8.11038304 14.7383502,7.746379 15,7.33214712 C14.6487058,7.49642168 14.2710785,7.60751382 13.8755223,7.65715074 Z" id="Shape" fill="#000000"></path>
                </g>
            </g>
        </g>
    </g>
</svg>